<svg width="24" height="24" viewBox="0 0 24 24" fill="none" xmlns="http://www.w3.org/2000/svg">
<path d="M5.6694 20.8781C5.17102 21.2109 4.50293 20.8536 4.50293 20.2544V6.0176C4.50293 4.36285 5.8428 3.02057 7.49756 3.01761L16.4976 3.00147C18.1544 2.99852 19.5 4.33925 19.5029 5.99611V20.2544C19.5029 20.8536 18.8348 21.2109 18.3365 20.8781L12.0029 16.6493L5.6694 20.8781ZM18.0029 6.00148L17.9925 5.82388C17.9045 5.07803 17.2695 4.5001 16.5002 4.50147L7.50024 4.51761C6.67287 4.51909 6.00293 5.19023 6.00293 6.0176V18.8518L11.5865 15.1237C11.8386 14.9554 12.1673 14.9554 12.4194 15.1237L18.0029 18.8518V6.00148Z" fill="black"/>
</svg>
