<svg width="24" height="24" viewBox="0 0 24 24" fill="none" xmlns="http://www.w3.org/2000/svg">
<path d="M5.66915 20.8781C5.17077 21.2109 4.50269 20.8536 4.50269 20.2544V6.0176C4.50269 4.36285 5.84256 3.02057 7.49731 3.01761L16.4973 3.00147C18.1542 2.99852 19.4997 4.33925 19.5027 5.99611V20.2544C19.5027 20.8536 18.8346 21.2109 18.3362 20.8781L12.0027 16.6493L5.66915 20.8781ZM18.0027 6.00148L17.9923 5.82388C17.9043 5.07803 17.2692 4.5001 16.5 4.50147L7.5 4.51761C6.67262 4.51909 6.00269 5.19023 6.00269 6.0176V18.8518L11.5862 15.1237C11.8383 14.9554 12.167 14.9554 12.4192 15.1237L18.0027 18.8518V6.00148Z" fill="white"/>
</svg>
