<svg width="16" height="16" viewBox="0 0 16 16" fill="none" xmlns="http://www.w3.org/2000/svg">
<path fill-rule="evenodd" clip-rule="evenodd" d="M13.8299 2.99122C14.0567 2.76447 14.0567 2.39682 13.8299 2.17007C13.6032 1.94331 13.2355 1.94331 13.0088 2.17007L8 7.17884L2.99122 2.17007C2.76447 1.94331 2.39682 1.94331 2.17007 2.17007C1.94331 2.39682 1.94331 2.76447 2.17007 2.99122L7.17884 8L2.17007 13.0088C1.94331 13.2355 1.94331 13.6032 2.17007 13.8299C2.39682 14.0567 2.76447 14.0567 2.99122 13.8299L8 8.82116L13.0088 13.8299C13.2355 14.0567 13.6032 14.0567 13.8299 13.8299C14.0567 13.6032 14.0567 13.2355 13.8299 13.0088L8.82116 8L13.8299 2.99122Z" fill="black"/>
</svg>
