<svg width="25" height="24" viewBox="0 0 25 24" fill="none" xmlns="http://www.w3.org/2000/svg">
<path d="M11.6998 10.9245C11.6998 13.5792 10.1265 12.1314 8.18484 12.1314C6.24378 12.1314 4.67047 13.5792 4.67047 10.9245C4.67047 9.19188 6.24378 7.30467 8.18484 7.30467C10.1265 7.30467 11.6998 9.19188 11.6998 10.9245ZM4.53433 6.14226C4.77643 6.93279 4.53865 7.69668 4.00333 7.84827C3.4674 7.99987 2.83721 7.48173 2.59512 6.69119C2.35241 5.90066 2.59019 5.13677 3.12613 4.98459C3.66144 4.83359 4.29224 5.35173 4.53433 6.14226ZM13.7746 6.70126C13.5238 7.49002 12.8863 8.00164 12.3503 7.84413C11.815 7.6872 11.584 6.91977 11.8353 6.13101C12.0861 5.34284 12.723 4.83063 13.2589 4.98814C13.7943 5.14565 14.0253 5.9125 13.7746 6.70126ZM7.54665 3.82395C7.77211 4.94787 7.41297 5.95928 6.7446 6.08304C6.07622 6.20621 5.35179 5.39554 5.12694 4.27163C4.9021 3.14771 5.26123 2.1363 5.92961 2.01254C6.59737 1.88877 7.3218 2.70004 7.54665 3.82395ZM11.2403 4.28465C11.0019 5.40621 10.2682 6.20917 9.60167 6.07831C8.93514 5.94744 8.58771 4.93188 8.82611 3.81033C9.06451 2.68937 9.79818 1.88581 10.4647 2.01668C11.1312 2.14814 11.4787 3.1631 11.2403 4.28465ZM20.324 20.3991C20.324 23.0538 18.7501 21.6059 16.809 21.6059C14.868 21.6059 13.2941 23.0538 13.2941 20.3991C13.2941 18.6664 14.868 16.7792 16.809 16.7792C18.7501 16.7792 20.324 18.6664 20.324 20.3991ZM13.1585 15.6162C13.4012 16.4074 13.1629 17.1712 12.6275 17.3228C12.0916 17.4744 11.4614 16.9563 11.2193 16.1658C10.9766 15.3746 11.2144 14.6107 11.7503 14.4591C12.2856 14.3076 12.9164 14.8257 13.1585 15.6162ZM22.3988 16.1758C22.148 16.9646 21.5105 17.4762 20.9745 17.3187C20.4392 17.1612 20.2082 16.3943 20.4595 15.6056C20.7103 14.8168 21.3478 14.3052 21.8832 14.4627C22.4185 14.6202 22.6495 15.3871 22.3988 16.1758ZM16.1709 13.2985C16.3957 14.4218 16.0366 15.4338 15.3688 15.557C14.7004 15.6808 13.976 14.8701 13.7511 13.7462C13.5263 12.6223 13.8854 11.6109 14.5532 11.4871C15.2216 11.3633 15.946 12.1746 16.1709 13.2985ZM19.8645 13.7592C19.6255 14.8808 18.8924 15.6837 18.2259 15.5529C17.5593 15.422 17.2113 14.4064 17.4497 13.2849C17.6887 12.1633 18.4218 11.3604 19.0883 11.4912C19.7548 11.6227 20.1029 12.6377 19.8645 13.7592Z" fill="#111111"/>
</svg>
