<svg width="27" height="24" viewBox="0 0 27 24" fill="none" xmlns="http://www.w3.org/2000/svg">
<path d="M13.4523 13.2308C16.7508 13.2308 19.3961 10.7077 19.3961 7.63077C19.3961 4.55385 16.7508 2 13.4523 2C10.1539 2 7.50859 4.52308 7.50859 7.6C7.50859 10.6769 10.1539 13.2308 13.4523 13.2308ZM13.4523 3.47692C15.869 3.47692 17.8285 5.32308 17.8285 7.6C17.8285 9.87692 15.869 11.7231 13.4523 11.7231C11.0356 11.7231 9.07617 9.90769 9.07617 7.63077C9.07617 5.35385 11.0356 3.47692 13.4523 3.47692ZM3.13242 22H23.8376C24.2621 22 24.6214 21.6615 24.6214 21.2615C24.6214 17.3846 21.2576 14.2154 17.1427 14.2154H9.8273C5.7124 14.2154 2.34863 17.3846 2.34863 21.2615C2.34863 21.6615 2.70787 22 3.13242 22ZM9.8273 15.6923H17.1427C20.1472 15.6923 22.5966 17.7846 22.9885 20.5231H3.98153C4.37343 17.7846 6.82277 15.6923 9.8273 15.6923Z" fill="black"/>
</svg>
