<svg width="24" height="24" viewBox="0 0 24 24" fill="none" xmlns="http://www.w3.org/2000/svg">
<g clip-path="url(#clip0_1297_13020)">
<path d="M9.37338 18V18.8C9.37338 19.6487 9.70279 20.4626 10.2891 21.0627C10.8755 21.6629 11.6708 22 12.5 22C13.3292 22 14.1245 21.6629 14.7109 21.0627C15.2972 20.4626 15.6266 19.6487 15.6266 18.8V18M5.48494 9.19996C5.48365 8.25117 5.66585 7.31149 6.02104 6.4351C6.37623 5.55871 6.8974 4.76294 7.55449 4.09366C8.21158 3.42438 8.9916 2.89482 9.84959 2.53551C10.7076 2.1762 11.6266 1.99425 12.5536 2.00014C16.4218 2.02957 19.5158 5.32028 19.5158 9.29035V9.99996C19.5158 13.5815 20.248 15.6599 20.8928 16.7958C20.9623 16.9172 20.9993 17.0552 21 17.1958C21.0007 17.3365 20.9652 17.4748 20.897 17.597C20.8288 17.7191 20.7304 17.8207 20.6116 17.8914C20.4928 17.9622 20.3579 17.9996 20.2204 18H4.77955C4.6421 17.9996 4.50717 17.9622 4.38838 17.8914C4.26958 17.8206 4.17113 17.719 4.10294 17.5969C4.03476 17.4747 3.99925 17.3363 4.00001 17.1957C4.00077 17.055 4.03777 16.917 4.10727 16.7956C4.75245 15.6597 5.48494 13.5814 5.48494 9.99996L5.48494 9.19996Z" stroke="black" stroke-width="1.5" stroke-linecap="round" stroke-linejoin="round"/>
<circle cx="18" cy="6" r="4" fill="#FF5449"/>
</g>
<defs>
<clipPath id="clip0_1297_13020">
<rect width="24" height="24" fill="white"/>
</clipPath>
</defs>
</svg>
