<svg width="24" height="24" viewBox="0 0 24 24" fill="none" xmlns="http://www.w3.org/2000/svg">
<path d="M19.8612 18.5093L16.6242 15.2818C17.6686 13.9512 18.2353 12.3081 18.2332 10.6166C18.2332 9.11018 17.7865 7.63759 16.9496 6.38504C16.1126 5.1325 14.9231 4.15626 13.5313 3.57978C12.1396 3.0033 10.6081 2.85247 9.13067 3.14635C7.6532 3.44024 6.29605 4.16565 5.23085 5.23085C4.16565 6.29605 3.44024 7.6532 3.14635 9.13067C2.85247 10.6081 3.0033 12.1396 3.57978 13.5313C4.15626 14.9231 5.1325 16.1126 6.38504 16.9496C7.63759 17.7865 9.11018 18.2332 10.6166 18.2332C12.3081 18.2353 13.9512 17.6686 15.2818 16.6242L18.5093 19.8612C18.5978 19.9505 18.7031 20.0213 18.8191 20.0696C18.9351 20.118 19.0596 20.1429 19.1853 20.1429C19.3109 20.1429 19.4354 20.118 19.5514 20.0696C19.6674 20.0213 19.7727 19.9505 19.8612 19.8612C19.9505 19.7727 20.0213 19.6674 20.0696 19.5514C20.118 19.4354 20.1429 19.3109 20.1429 19.1853C20.1429 19.0596 20.118 18.9351 20.0696 18.8191C20.0213 18.7031 19.9505 18.5978 19.8612 18.5093ZM4.90415 10.6166C4.90415 9.48678 5.23918 8.38234 5.86687 7.44293C6.49456 6.50353 7.38673 5.77135 8.43054 5.33899C9.47435 4.90662 10.6229 4.7935 11.731 5.01391C12.8391 5.23433 13.857 5.77839 14.6559 6.57729C15.4548 7.37619 15.9989 8.39405 16.2193 9.50215C16.4397 10.6103 16.3266 11.7588 15.8942 12.8027C15.4618 13.8465 14.7297 14.7386 13.7903 15.3663C12.8509 15.994 11.7464 16.329 10.6166 16.329C9.10156 16.329 7.64858 15.7272 6.57729 14.6559C5.506 13.5846 4.90415 12.1316 4.90415 10.6166Z" fill="#666666"/>
</svg>
