<svg width="20" height="20" viewBox="0 0 20 20" fill="none" xmlns="http://www.w3.org/2000/svg">
<path fill-rule="evenodd" clip-rule="evenodd" d="M18.0975 1.90271C18.4124 2.21765 18.4124 2.72826 18.0975 3.0432L3.04369 18.097C2.72875 18.4119 2.21814 18.4119 1.9032 18.097C1.58826 17.782 1.58826 17.2714 1.9032 16.9565L16.957 1.90271C17.2719 1.58777 17.7825 1.58777 18.0975 1.90271Z" fill="black"/>
<path fill-rule="evenodd" clip-rule="evenodd" d="M1.9032 1.90271C2.21814 1.58777 2.72875 1.58777 3.04369 1.90271L18.0975 16.9565C18.4124 17.2714 18.4124 17.782 18.0975 18.097C17.7825 18.4119 17.2719 18.4119 16.957 18.097L1.9032 3.0432C1.58826 2.72826 1.58826 2.21765 1.9032 1.90271Z" fill="black"/>
</svg>
