<svg width="24" height="24" viewBox="0 0 24 24" fill="none" xmlns="http://www.w3.org/2000/svg">
<path fill-rule="evenodd" clip-rule="evenodd" d="M12.1467 3.6033C12.0577 3.54013 11.9415 3.5407 11.8544 3.60254L4.58144 8.7638V20.1846C4.58144 20.3278 4.69597 20.444 4.83725 20.444H7.13956V14.9978C7.13956 12.2765 9.31566 10.0704 12 10.0704C14.6843 10.0704 16.8604 12.2765 16.8604 14.9978V20.444H19.1627C19.304 20.444 19.4186 20.3278 19.4186 20.1846V8.7638L12.1467 3.6033ZM20.9534 9.85303L21.7924 10.4484C22.1396 10.6948 22.6181 10.6092 22.8612 10.2572C23.1043 9.90517 23.0198 9.42005 22.6726 9.17364L13.0269 2.32855C12.4113 1.89167 11.5917 1.88956 10.9742 2.32778L1.32741 9.17364C0.98018 9.42005 0.895736 9.90517 1.13879 10.2572C1.38185 10.6092 1.86037 10.6948 2.2076 10.4484L3.04657 9.85303V20.1846C3.04657 21.1872 3.84828 22 4.83725 22H19.1627C20.1517 22 20.9534 21.1872 20.9534 20.1846V9.85303ZM15.3256 20.444V14.9978C15.3256 13.1358 13.8367 11.6264 12 11.6264C10.1633 11.6264 8.67444 13.1358 8.67444 14.9978V20.444H15.3256Z" fill="black"/>
</svg>
