<svg width="20" height="20" viewBox="0 0 20 20" fill="none" xmlns="http://www.w3.org/2000/svg">
<g clip-path="url(#clip0_734_12099)">
<path d="M10.0001 17.5C10.0001 17.5 1.66675 12.7273 1.66675 6.93182C1.66692 5.90751 2.01396 4.91486 2.64887 4.12266C3.28378 3.33046 4.16737 2.7876 5.1494 2.58638C6.13144 2.38515 7.15132 2.53799 8.03563 3.0189C8.91994 3.49981 9.6141 4.2791 10.0001 5.2243C10.3861 4.2791 11.0802 3.49981 11.9645 3.0189C12.8488 2.53799 13.8687 2.38515 14.8508 2.58638C15.8328 2.7876 16.7164 3.33046 17.3513 4.12266C17.9862 4.91486 18.3332 5.90751 18.3334 6.93182C18.3334 12.7273 10.0001 17.5 10.0001 17.5Z" stroke="black" stroke-width="1.5" stroke-linecap="round" stroke-linejoin="round"/>
<path d="M13.3333 5.85041C13.3333 5.85041 13.9966 5.70324 14.5833 6.28993C15.1699 6.87662 14.9999 7.50065 14.9999 7.50065" stroke="black" stroke-width="1.5" stroke-linecap="round"/>
</g>
<defs>
<clipPath id="clip0_734_12099">
<rect width="20" height="20" fill="white"/>
</clipPath>
</defs>
</svg>
