<svg width="20" height="20" viewBox="0 0 20 20" fill="none" xmlns="http://www.w3.org/2000/svg">
<g clip-path="url(#clip0_734_12107)">
<path d="M9.99996 17.5C9.99996 17.5 1.66663 12.7273 1.66663 6.93182C1.6668 5.90751 2.01384 4.91486 2.64875 4.12266C3.28366 3.33046 4.16724 2.7876 5.14928 2.58638C6.13132 2.38515 7.15119 2.53799 8.0355 3.0189C8.91981 3.49981 9.61397 4.2791 9.99996 5.2243C10.386 4.2791 11.0801 3.49981 11.9644 3.0189C12.8487 2.53799 13.8686 2.38515 14.8506 2.58638C15.8327 2.7876 16.7163 3.33046 17.3512 4.12266C17.9861 4.91486 18.3331 5.90751 18.3333 6.93182C18.3333 12.7273 9.99996 17.5 9.99996 17.5Z" fill="#5DC9F7" fill-opacity="0.5" stroke="#5DC9F7" stroke-width="1.5" stroke-linecap="round" stroke-linejoin="round"/>
<path d="M13.3334 5.85041C13.3334 5.85041 13.9967 5.70324 14.5834 6.28993C15.1701 6.87662 15 7.50065 15 7.50065" stroke="#5DC9F7" stroke-width="1.5" stroke-linecap="round"/>
</g>
<defs>
<clipPath id="clip0_734_12107">
<rect width="20" height="20" fill="white"/>
</clipPath>
</defs>
</svg>
